<?xml version="1.0" encoding="UTF-8"?>
<svg width="512" height="512" viewBox="0 0 24 24" xmlns="http://www.w3.org/2000/svg">
    <style>
        path { fill: #ef4444; }
        @media (prefers-color-scheme: dark) {
            path { fill: #f87171; }
        }
    </style>
    <path fill-rule="evenodd" clip-rule="evenodd" d="M12 3C7.02944 3 3 7.02944 3 12C3 16.9706 7.02944 21 12 21C16.9706 21 21 16.9706 21 12C21 7.02944 16.9706 3 12 3ZM1 12C1 5.92487 5.92487 1 12 1C18.0751 1 23 5.92487 23 12C23 18.0751 18.0751 23 12 23C5.92487 23 1 18.0751 1 12ZM12 7C9.79086 7 8 8.79086 8 11C8 12.2634 8.57666 13.3978 9.49994 14.1265C7.94248 14.8918 6.70981 16.2509 6.17157 17.8993C5.99831 18.4386 6.27451 19.0197 6.81381 19.193C7.3531 19.3662 7.93424 19.09 8.1075 18.5507C8.71094 16.5931 10.2105 15.1 12.0001 15.1C13.7896 15.1 15.2891 16.5931 15.8925 18.5507C16.0658 19.09 16.6469 19.3662 17.1862 19.193C17.7255 19.0197 18.0017 18.4386 17.8285 17.8993C17.2902 16.2509 16.0575 14.8918 14.5001 14.1265C15.4233 13.3978 16 12.2634 16 11C16 8.79086 14.2091 7 12 7ZM10 11C10 9.89543 10.8954 9 12 9C13.1046 9 14 9.89543 14 11C14 12.1046 13.1046 13 12 13C10.8954 13 10 12.1046 10 11Z"/>
</svg>
